<?xml version="1.0" encoding="UTF-8"?>
<svg width="100" height="100" viewBox="0 0 100 100" fill="none" xmlns="http://www.w3.org/2000/svg">
  <!-- Scroll background -->
  <path d="M20 25c0-2.76 2.24-5 5-5h50c2.76 0 5 2.24 5 5v50c0 2.76-2.24 5-5 5H25c-2.76 0-5-2.24-5-5V25z" fill="#F9D45C"/>
  <!-- Quill -->
  <path d="M60 30c-15 15-30 40-30 40s5-5 10-5c5 0 5 5 10 5s5-5 10-5 5 5 10 5" stroke="#4B4B4B" stroke-width="2"/>
  <!-- Ink drop -->
  <circle cx="70" cy="25" r="3" fill="#4B4B4B"/>
  <!-- Grammar symbols -->
  <text x="30" y="55" font-family="Arial" font-size="16" font-weight="bold" fill="#4B4B4B">ABC</text>
  <path d="M65 45l5 5m0-5l-5 5" stroke="#4B4B4B" stroke-width="2"/>
  <!-- Guru crown -->
  <path d="M40 20l5 10 5-10 5 10 5-10v5H35v-5z" fill="#FFD700"/>
</svg>
