<?xml version="1.0" encoding="UTF-8"?>
<svg width="100" height="100" viewBox="0 0 100 100" fill="none" xmlns="http://www.w3.org/2000/svg">
  <!-- Book base -->
  <rect x="20" y="25" width="60" height="50" rx="4" fill="#4B9EF9"/>
  <!-- Pages -->
  <path d="M25 30h50v40H25c-2 0-3-1-3-3V33c0-2 1-3 3-3z" fill="white"/>
  <!-- Text lines -->
  <rect x="30" y="38" width="35" height="2" rx="1" fill="#BFDAF9"/>
  <rect x="30" y="45" width="40" height="2" rx="1" fill="#BFDAF9"/>
  <rect x="30" y="52" width="30" height="2" rx="1" fill="#BFDAF9"/>
  <!-- Star -->
  <path d="M75 20l2.5 7.5H85l-6 4.33 2.5 7.5-6-4.33-6 4.33 2.5-7.5-6-4.33h7.5z" fill="#FFD700"/>
  <!-- "V" letter -->
  <path d="M65 60l5 8 5-8" stroke="#4B9EF9" stroke-width="3" stroke-linecap="round" stroke-linejoin="round"/>
</svg>
